<?xml version="1.0" encoding="UTF-8"?>
<svg id="Layer_1" data-name="Layer 1" xmlns="http://www.w3.org/2000/svg" viewBox="0 0 584.3 664.9">
  <defs>
    <style>
      .cls-1 {
        fill: #2f476d;
      }
    </style>
  </defs>
  <polygon class="cls-1" points="499.8 37.6 524.9 75.5 513.8 87.7 524.1 91 521.2 104 542 100.8 523.4 116.3 521.9 149.2 551.4 137.5 570.6 166.8 408.3 248.3 384.7 480.7 282.9 278.5 305 236.1 286.5 189.6 288.8 228.7 279.2 243.8 217.9 243.8 158.9 218.2 155.2 237.7 220.1 268.7 155.2 263.8 155.2 275.2 218.7 285 166.3 289.1 168.3 297.7 217.5 298.6 175.8 316.7 180.3 322.2 232.6 301.4 248.9 304.5 328.6 664.9 531.5 440.7 584.3 514.9 584.3 7 499.8 37.6"/>
  <path class="cls-1" d="m50.8,257.6l137,119.5s-115.7,63-112.8,63h136.8l-52.1,108,92.1-33-44,127,10.2-90-122.2,44,81.6-135L0,449.8l152.8-76.7-102-115.5Z"/>
  <polygon class="cls-1" points="435.3 637.7 502.3 557.7 563.3 646.7 507.3 524.7 435.3 637.7"/>
  <polygon class="cls-1" points="188.4 146.1 207.9 97.8 179.6 74.7 203.6 45.4 190.2 72.7 220.9 95.7 188.4 146.1"/>
  <polygon class="cls-1" points="229.7 135.7 249.2 87.4 220.9 64.3 244.9 35 231.6 62.3 262.2 85.3 229.7 135.7"/>
  <path class="cls-1" d="m286.6,135.7l-131.5,37,24.1,36,39,15,42-5.5,26.4-39.5v-14.5l32.1-11.5,3.5-26-35.6,9Zm16.9,14.5l-16.9,5.4v-10.8l26.1-9.1-9.2,14.5Z"/>
</svg>