<?xml version="1.0" encoding="UTF-8"?>
<svg id="Layer_1" data-name="Layer 1" xmlns="http://www.w3.org/2000/svg" viewBox="0 0 113.4 113.4">
  <defs>
    <style>
      .cls-1, .cls-2, .cls-3, .cls-4, .cls-5 {
        fill: #2f476d;
      }

      .cls-2 {
        font-size: 10.4px;
      }

      .cls-2, .cls-3, .cls-4, .cls-5 {
        font-family: DINPro-Bold, DINPro;
        font-weight: 700;
      }

      .cls-3 {
        font-size: 10.4px;
      }

      .cls-4 {
        font-size: 10.4px;
      }

      .cls-5 {
        font-size: 10.4px;
      }
    </style>
  </defs>
  <g>
    <g>
      <text class="cls-3" transform="translate(10.9 46.1) rotate(-72.4)"><tspan x="0" y="0">A</tspan></text>
      <text class="cls-3" transform="translate(13.6 38.3) rotate(-62.9)"><tspan x="0" y="0">V</tspan></text>
      <text class="cls-3" transform="translate(17.2 31.5) rotate(-53.1)"><tspan x="0" y="0">G</tspan></text>
      <text class="cls-3" transform="translate(22.6 24.8) rotate(-45.3)"><tspan x="0" y="0"> </tspan></text>
      <text class="cls-3" transform="translate(25.6 21.7) rotate(-37.7)"><tspan x="0" y="0">E</tspan></text>
      <text class="cls-3" transform="translate(32.2 16.9) rotate(-28.1)"><tspan x="0" y="0">L</tspan></text>
      <text class="cls-3" transform="translate(39.1 13.3) rotate(-18.5)"><tspan x="0" y="0">E</tspan></text>
      <text class="cls-3" transform="translate(46.9 10.9) rotate(-8.5)"><tspan x="0" y="0">C</tspan></text>
      <text class="cls-3" transform="translate(55 9.8) rotate(1.1)"><tspan x="0" y="0">T</tspan></text>
      <text class="cls-3" transform="translate(62.7 10.1) rotate(11)"><tspan x="0" y="0">R</tspan></text>
      <text class="cls-3" transform="translate(71.2 12) rotate(19.2)"><tspan x="0" y="0">I</tspan></text>
      <text class="cls-3" transform="translate(76 13.7) rotate(27.3)"><tspan x="0" y="0">C</tspan></text>
      <text class="cls-3" transform="translate(83.3 17.8) rotate(35)"><tspan x="0" y="0"> </tspan></text>
      <text class="cls-3" transform="translate(86.8 20.2) rotate(42.7)"><tspan x="0" y="0">C</tspan></text>
      <text class="cls-3" transform="translate(92.8 25.9) rotate(52.7)"><tspan x="0" y="0">A</tspan></text>
      <text class="cls-3" transform="translate(97.8 32.8) rotate(62.6)"><tspan x="0" y="0">F</tspan></text>
      <text class="cls-3" transform="translate(101.3 39.9) rotate(72.3)"><tspan x="0" y="0">E</tspan></text>
    </g>
    <g>
      <text class="cls-4" transform="translate(103.2 68.7) rotate(107.8)"><tspan x="0" y="0">A</tspan></text>
      <text class="cls-4" transform="translate(100.6 76.4) rotate(117.3)"><tspan x="0" y="0">V</tspan></text>
      <text class="cls-4" transform="translate(96.9 83.2) rotate(127.2)"><tspan x="0" y="0">G</tspan></text>
      <text class="cls-4" transform="translate(91.5 89.9) rotate(135)"><tspan x="0" y="0"> </tspan></text>
      <text class="cls-4" transform="translate(88.4 92.9) rotate(142.5)"><tspan x="0" y="0">E</tspan></text>
      <text class="cls-4" transform="translate(81.9 97.8) rotate(152.2)"><tspan x="0" y="0">L</tspan></text>
      <text class="cls-4" transform="translate(74.9 101.3) rotate(161.8)"><tspan x="0" y="0">E</tspan></text>
      <text class="cls-4" transform="translate(67.1 103.7) rotate(171.7)"><tspan x="0" y="0">C</tspan></text>
      <text class="cls-4" transform="translate(59 104.7) rotate(-178.7)"><tspan x="0" y="0">T</tspan></text>
      <text class="cls-4" transform="translate(51.3 104.4) rotate(-168.8)"><tspan x="0" y="0">R</tspan></text>
      <text class="cls-4" transform="translate(42.8 102.5) rotate(-160.6)"><tspan x="0" y="0">I</tspan></text>
      <text class="cls-4" transform="translate(38 100.7) rotate(-152.4)"><tspan x="0" y="0">C</tspan></text>
      <text class="cls-4" transform="translate(30.7 96.6) rotate(-144.7)"><tspan x="0" y="0"> </tspan></text>
      <text class="cls-4" transform="translate(27.2 94.2) rotate(-137)"><tspan x="0" y="0">C</tspan></text>
      <text class="cls-4" transform="translate(21.3 88.5) rotate(-127)"><tspan x="0" y="0">A</tspan></text>
      <text class="cls-4" transform="translate(16.3 81.6) rotate(-117.1)"><tspan x="0" y="0">F</tspan></text>
      <text class="cls-4" transform="translate(12.8 74.4) rotate(-107.4)"><tspan x="0" y="0">E</tspan></text>
    </g>
    <text class="cls-5" transform="translate(9.7 59.9) rotate(-90.6)"><tspan x="0" y="0">-</tspan></text>
    <text class="cls-2" transform="translate(104.5 56.2) rotate(91.4)"><tspan x="0" y="0">-</tspan></text>
  </g>
  <g>
    <path class="cls-1" d="m92.6,57.3c0,19.6-15.9,35.5-35.5,35.5-19.6,0-35.5-15.9-35.5-35.5,0-19.6,15.9-35.5,35.5-35.5,19.6,0,35.5,15.9,35.5,35.5ZM57.1,15.8c-22.9,0-41.5,18.6-41.5,41.5,0,22.9,18.6,41.5,41.5,41.5,22.9,0,41.5-18.6,41.5-41.5S80,15.8,57.1,15.8Z"/>
    <path class="cls-1" d="m70.4,57.3h0s2.7-9.4,2.7-9.4c.4-1.3-.4-2.3-1.7-2.3h-.6c-1.3,0-2.1-1-1.7-2.3,0,0,2.3-8.3,2.3-8.4.2-.7.5-2.1-.6-2.3,0,0,0,0,0,0-1.1-.2-2,1.2-2.5,2l-7.3,10.8c-.7,1.1-.3,2,1,2h.7c1.3,0,1.9,1,1.4,2.2l-3.5,7.7h-11.8s2.7-9.4,2.7-9.4c.4-1.3-.4-2.3-1.7-2.3h-.6c-1.3,0-2.1-1-1.7-2.3,0,0,2.3-8.3,2.3-8.4.2-.7.5-2.1-.6-2.3,0,0,0,0,0,0-1.1-.2-2,1.2-2.5,2l-7.3,10.8c-.7,1.1-.3,2,1,2h.7c1.3,0,1.9,1,1.4,2.2l-3.5,7.7h-11.4c0,16.4,13.3,29.6,29.6,29.6,16.4,0,29.6-13.3,29.6-29.6h-16.3Z"/>
  </g>
</svg>